<svg width="35" height="35" viewBox="0 0 35 35" fill="none" xmlns="http://www.w3.org/2000/svg">
<path d="M15.3333 0.565735C23.6133 0.565735 30.3333 7.28574 30.3333 15.5657C30.3333 23.8457 23.6133 30.5657 15.3333 30.5657C7.05331 30.5657 0.333313 23.8457 0.333313 15.5657C0.333313 7.28574 7.05331 0.565735 15.3333 0.565735ZM15.3333 27.2324C21.7783 27.2324 27 22.0107 27 15.5657C27 9.11907 21.7783 3.89907 15.3333 3.89907C8.88665 3.89907 3.66665 9.11907 3.66665 15.5657C3.66665 22.0107 8.88665 27.2324 15.3333 27.2324ZM29.475 27.3507L34.19 32.0641L31.8316 34.4224L27.1183 29.7074L29.475 27.3507Z" fill="white"/>
</svg>
