<svg width="36" height="33" viewBox="0 0 36 33" fill="none" xmlns="http://www.w3.org/2000/svg">
<path d="M3.82001 11.4417L5.96335 29.6667H30.0367L32.18 11.4417L25.4967 15.8967L18 5.40172L10.5033 15.8967L3.82001 11.4417ZM2.66835 6.66672L9.66668 11.3334L16.6433 1.56672C16.7975 1.35067 17.0011 1.17456 17.237 1.05306C17.473 0.931554 17.7346 0.868164 18 0.868164C18.2654 0.868164 18.527 0.931554 18.763 1.05306C18.999 1.17456 19.2025 1.35067 19.3567 1.56672L26.3333 11.3334L33.3333 6.66672C33.5983 6.49047 33.9081 6.39373 34.2263 6.38795C34.5444 6.38217 34.8576 6.46758 35.1287 6.63409C35.3999 6.8006 35.6177 7.04126 35.7564 7.32761C35.8952 7.61397 35.949 7.93406 35.9117 8.25006L33.1733 31.5284C33.1256 31.9338 32.9307 32.3076 32.6256 32.5789C32.3206 32.8501 31.9266 33 31.5183 33.0001H4.48168C4.07346 33 3.67945 32.8501 3.37439 32.5789C3.06933 32.3076 2.87444 31.9338 2.82668 31.5284L0.0883458 8.24839C0.0513458 7.93253 0.105488 7.61267 0.24438 7.32658C0.383273 7.0405 0.601117 6.80012 0.872197 6.63382C1.14328 6.46753 1.45628 6.38227 1.77424 6.3881C2.09221 6.39393 2.40188 6.4906 2.66668 6.66672H2.66835ZM18 23.0001C17.116 23.0001 16.2681 22.6489 15.643 22.0237C15.0179 21.3986 14.6667 20.5508 14.6667 19.6667C14.6667 18.7827 15.0179 17.9348 15.643 17.3097C16.2681 16.6846 17.116 16.3334 18 16.3334C18.8841 16.3334 19.7319 16.6846 20.357 17.3097C20.9822 17.9348 21.3333 18.7827 21.3333 19.6667C21.3333 20.5508 20.9822 21.3986 20.357 22.0237C19.7319 22.6489 18.8841 23.0001 18 23.0001Z" fill="white"/>
</svg>
